PathFileType	4	(X/Y/Z)	/Users/itak/Documents/Research/Walk-IL/dataset/trc/00404_00012.trc
DataRate	CameraRate	NumFrames	NumMarkers	Units	OrigDataRate	OrigDataStartFrame	OrigNumFrames
100.000000	100.000000	4	54	mm	100.000000	283	566
Frame#	Time	RPSI			LPSI			L3			STRN			T10			C7			CLAV			RBAK			LBAK			LSHO			LUPA			LAEL			LAOL			LWTS			LWPS			LFRA			LHPS			RSHO			RUPA			RAEL			RAOL			RWTS			RWPS			RFRA			RIFD			RHPS			RBHD			LFHD			RFHD			LBHD			LHIP			RHIP			RASI			LASI			LKNE			LTHI			LANK			LTIP			LTOE			LMT1			LMT5			LHEE			RKNE			RTHI			RANK			RTIP			RTOE			RMT1			RMT5			RHEE			LIFD			LHTS			RHTS			*53			
		X1	Y1	Z1	X2	Y2	Z2	X3	Y3	Z3	X4	Y4	Z4	X5	Y5	Z5	X6	Y6	Z6	X7	Y7	Z7	X8	Y8	Z8	X9	Y9	Z9	X10	Y10	Z10	X11	Y11	Z11	X12	Y12	Z12	X13	Y13	Z13	X14	Y14	Z14	X15	Y15	Z15	X16	Y16	Z16	X17	Y17	Z17	X18	Y18	Z18	X19	Y19	Z19	X20	Y20	Z20	X21	Y21	Z21	X22	Y22	Z22	X23	Y23	Z23	X24	Y24	Z24	X25	Y25	Z25	X26	Y26	Z26	X27	Y27	Z27	X28	Y28	Z28	X29	Y29	Z29	X30	Y30	Z30	X31	Y31	Z31	X32	Y32	Z32	X33	Y33	Z33	X34	Y34	Z34	X35	Y35	Z35	X36	Y36	Z36	X37	Y37	Z37	X38	Y38	Z38	X39	Y39	Z39	X40	Y40	Z40	X41	Y41	Z41	X42	Y42	Z42	X43	Y43	Z43	X44	Y44	Z44	X45	Y45	Z45	X46	Y46	Z46	X47	Y47	Z47	X48	Y48	Z48	X49	Y49	Z49	X50	Y50	Z50	X51	Y51	Z51	X52	Y52	Z52	X53	Y53	Z53	X54	Y54	Z54	

284	2.83	-657.2971801757812	969.7536010742188	-350.9672241210938	-731.2512817382812	975.6089477539062	-460.5389709472656	-690.2823486328125	1056.78564453125	-404.34033203125	-476.5873718261719	1205.1806640625	-525.0274658203125	-698.5132446289062	1159.605590820312	-409.9606323242188	-658.4260864257812	1406.563110351562	-440.8722839355469	-520.7528686523438	1326.056762695312	-500.4842834472656	-677.6705932617188	1262.044067382812	-364.4455261230469	-719.6676635742188	1373.951171875	-524.62548828125	-664.5160522460938	1387.786254882812	-607.0543212890625	-724.809326171875	1275.90673828125	-659.8621826171875	-729.9639282226562	1085.060791015625	-708.3651733398438	-738.4273681640625	1053.119140625	-628.5822143554688	-617.471923828125	901.0217895507812	-786.9820556640625	-696.6615600585938	882.614013671875	-800.1134643554688	-719.6304321289062	990.9640502929688	-745.9528198242188	-674.80615234375	807.9484252929688	-832.90185546875	-549.5804443359375	1383.52587890625	-320.9917602539062	-550.775634765625	1321.876098632812	-260.4618835449219	-569.6005249023438	1062.083129882812	-212.585693359375	-614.4624633789062	1054.645141601562	-296.039794921875	-473.4066162109375	838.8226318359375	-270.2066040039062	-495.86669921875	833.29736328125	-198.6513214111328	-546.519287109375	996.5642700195312	-200.8688049316406	-482.196044921875	664.6331787109375	-248.8221282958984	-497.7142639160156	745.4656982421875	-193.2021484375	-583.7769775390625	1587.627075195312	-374.7814636230469	-500.1582336425781	1592.672729492188	-556.3912963867188	-466.6629638671875	1592.918579101562	-438.4483947753906	-645.2100830078125	1586.829223632812	-524.8638916015625	-720.086669921875	973.8207397460938	-603.7906494140625	-528.9627075195312	941.8168334960938	-301.1231994628906	-450.3929138183594	958.2064208984375	-421.8042297363281	-602.9855346679688	966.26123046875	-635.9769897460938	-672.6285400390625	481.5091247558594	-664.5792846679688	-686.131591796875	624.1857299804688	-655.136962890625	-769.9776000976562	38.49162292480469	-604.95654296875	-728.3840942382812	250.6724243164062	-646.4927978515625	-559.4844360351562	51.39163589477539	-672.6292724609375	-604.56396484375	46.97611999511719	-601.2107543945312	-671.3568725585938	39.0496711730957	-684.9634399414062	-769.5777587890625	36.45050811767578	-537.1806030273438	-394.5302124023438	490.0707702636719	-473.3003540039062	-426.7987670898438	733.196044921875	-393.1147766113281	-628.1328735351562	144.3908386230469	-382.0062255859375	-438.2773132324219	370.3749694824219	-471.892578125	-557.3934936523438	44.84404754638672	-522.2188110351562	-620.7899169921875	86.95124816894531	-507.3104553222656	-574.858642578125	86.60357666015625	-416.9145202636719	-711.9511108398438	176.8154449462891	-387.7022094726562	-609.0078125	733.5557861328125	-855.3795776367188	-613.1541748046875	819.7075805664062	-846.011962890625	-457.3607482910156	733.03369140625	-248.6219482421875	nan	nan	nan	
285	2.84	-651.7313232421875	969.9479370117188	-356.9917907714844	-724.5549926757812	975.8317260742188	-467.1867065429688	-684.4354248046875	1057.114990234375	-410.7687683105469	-469.0984802246094	1205.58984375	-529.7424926757812	-692.3302001953125	1160.00439453125	-416.8426818847656	-651.4049072265625	1406.853149414062	-447.6326599121094	-513.2943115234375	1326.615478515625	-505.5976257324219	-672.06640625	1262.52099609375	-371.6611022949219	-711.878662109375	1374.379150390625	-532.0015869140625	-655.7869262695312	1388.5703125	-613.6962280273438	-715.2705078125	1276.826293945312	-667.5972290039062	-718.3240356445312	1086.453247070312	-717.7490844726562	-727.3541870117188	1053.605590820312	-638.4254760742188	-600.9261474609375	907.0011596679688	-798.3173828125	-679.472412109375	887.5927734375	-813.7946166992188	-705.746337890625	993.830810546875	-757.05810546875	-655.311767578125	814.1161499023438	-847.9967041015625	-544.3381958007812	1383.76171875	-326.4378662109375	-546.8006591796875	1322.519653320312	-265.9757080078125	-569.2770385742188	1063.184326171875	-217.6120147705078	-611.8184814453125	1055.77783203125	-302.3382263183594	-474.7385864257812	837.9135131835938	-270.4248962402344	-499.6167907714844	833.3742065429688	-199.3916015625	-547.2850952148438	997.4572143554688	-204.6689147949219	-487.2326354980469	663.9376831054688	-247.6845397949219	-502.8478088378906	745.6573486328125	-193.2359619140625	-577.0051879882812	1588.041625976562	-381.029541015625	-490.985595703125	1592.5009765625	-561.466552734375	-459.0450134277344	1592.791748046875	-443.0821533203125	-636.4119873046875	1587.256225585938	-531.9090576171875	-712.3595581054688	973.9727783203125	-610.3583374023438	-523.4945678710938	942.7452392578125	-306.3342590332031	-444.5930786132812	959.1264038085938	-426.4667053222656	-595.155517578125	966.2343139648438	-642.0253295898438	-671.971923828125	481.1077575683594	-666.5906982421875	-682.8689575195312	624.1542358398438	-658.5916748046875	-769.9916381835938	38.59720230102539	-604.8475341796875	-728.4176025390625	250.5769958496094	-647.1924438476562	-559.5635986328125	51.59601593017578	-672.8114624023438	-604.5774536132812	47.1717643737793	-601.3626098632812	-671.4700317382812	39.00297164916992	-685.03955078125	-769.476806640625	36.5161018371582	-537.0240478515625	-381.8174438476562	493.267333984375	-479.183837890625	-418.2289123535156	736.1515502929688	-397.4205932617188	-606.1491088867188	137.161376953125	-403.6126708984375	-422.1405944824219	372.005859375	-481.4710083007812	-525.3887329101562	45.59866333007812	-543.6688232421875	-591.4448852539062	83.88862609863281	-529.9925537109375	-548.7196655273438	83.30034637451172	-438.2019653320312	-691.2249755859375	165.6480865478516	-411.1967163085938	-587.6214599609375	741.5054931640625	-870.6900024414062	-593.7295532226562	827.324951171875	-859.2743530273438	-461.2120361328125	731.9689331054688	-247.3270874023438	nan	nan	nan	
286	2.85	-646.0861206054688	969.9223022460938	-363.0998840332031	-717.7755126953125	975.9025268554688	-473.8766479492188	-678.4329833984375	1057.193603515625	-417.270751953125	-461.504150390625	1205.659912109375	-534.4026489257812	-686.0769653320312	1160.127807617188	-423.7724304199219	-644.2650146484375	1406.876098632812	-454.2824401855469	-505.7496032714844	1326.80615234375	-510.6451721191406	-666.301513671875	1262.729858398438	-378.779296875	-704.0040893554688	1374.548583984375	-539.2518310546875	-646.9608154296875	1389.031860351562	-620.2246704101562	-705.6952514648438	1277.424682617188	-675.1729125976562	-706.8106689453125	1087.565063476562	-726.7786254882812	-716.2937622070312	1053.795043945312	-647.9196166992188	-584.481201171875	913.012451171875	-809.1942749023438	-662.3204345703125	892.4873046875	-826.91455078125	-691.9791870117188	996.5033569335938	-767.6818237304688	-635.7012939453125	820.2938842773438	-862.4456787109375	-538.9202880859375	1383.707153320312	-331.846435546875	-542.64208984375	1322.869262695312	-271.4710998535156	-568.7653198242188	1064.045532226562	-222.6766662597656	-608.922119140625	1056.60205078125	-308.581298828125	-475.9475708007812	836.9164428710938	-270.6865234375	-503.1579284667969	833.3427124023438	-200.3697662353516	-547.908203125	998.156494140625	-208.5568542480469	-492.1881713867188	663.1981811523438	-246.9088745117188	-507.7975769042969	745.75390625	-193.6148986816406	-570.109619140625	1588.149536132812	-387.1654968261719	-481.7800903320312	1592.075317382812	-566.4254760742188	-451.3609619140625	1592.396850585938	-447.6213989257812	-627.535400390625	1587.404052734375	-538.7899169921875	-704.4611206054688	973.9193115234375	-616.9273071289062	-517.934814453125	943.3717651367188	-311.6087951660156	-438.5911560058594	959.682373046875	-431.1044921875	-587.162841796875	965.9434814453125	-647.9659423828125	-671.2169189453125	480.6784362792969	-668.6140747070312	-679.6289672851562	624.0185546875	-661.9730834960938	-769.9667358398438	38.73108673095703	-604.7151489257812	-728.3765869140625	250.4694976806641	-647.9270629882812	-559.5735473632812	51.65336990356445	-672.9859619140625	-604.556396484375	47.31888961791992	-601.529296875	-671.5404663085938	38.95069885253906	-685.1002197265625	-769.418212890625	36.62439727783203	-536.8582763671875	-369.4792785644531	495.9140014648438	-484.779541015625	-409.8305969238281	738.662353515625	-401.544677734375	-582.99609375	129.6068267822266	-424.8909301757812	-406.0883483886719	373.1674499511719	-490.7422180175781	-492.6601867675781	46.46060180664062	-564.2230834960938	-561.0785522460938	80.87745666503906	-552.0176391601562	-521.7052612304688	79.8280029296875	-458.8949584960938	-669.1168823242188	154.1404418945312	-434.5284118652344	-565.981689453125	749.6898803710938	-885.3404541015625	-574.2993774414062	835.0697631835938	-871.9519653320312	-464.9811706542969	730.8453979492188	-246.3081512451172	nan	nan	nan	
287	2.86	-640.3410034179688	969.6670532226562	-369.2843017578125	-710.886474609375	975.8131713867188	-480.5945434570312	-672.21826171875	1057.019409179688	-423.8307800292969	-453.7843017578125	1205.378173828125	-539.0018310546875	-679.72705078125	1159.9765625	-430.7007751464844	-636.996337890625	1406.63134765625	-460.8243103027344	-498.1002502441406	1326.60888671875	-515.6249389648438	-660.3746948242188	1262.659545898438	-385.793212890625	-696.0321655273438	1374.456420898438	-546.3880004882812	-638.0178833007812	1389.147583007812	-626.6513671875	-696.0458374023438	1277.671630859375	-682.6051635742188	-695.3780517578125	1088.372802734375	-735.4844970703125	-705.2636108398438	1053.65478515625	-657.1041259765625	-568.1631469726562	919.0149536132812	-819.6227416992188	-645.2430419921875	897.251708984375	-839.4600219726562	-678.3318481445312	998.943603515625	-777.8351440429688	-616.0418701171875	826.44677734375	-876.2326049804688	-533.3021240234375	1383.351806640625	-337.2106018066406	-538.2704467773438	1322.906005859375	-276.9401245117188	-568.022216796875	1064.638061523438	-227.7906494140625	-605.7534790039062	1057.102661132812	-314.7677917480469	-477.0205383300781	835.8001098632812	-271.0057373046875	-506.4722900390625	833.1699829101562	-201.6036834716797	-548.3539428710938	998.6421508789062	-212.5431213378906	-496.9741821289062	662.3988037109375	-246.4918518066406	-512.54833984375	745.7242431640625	-194.3398132324219	-563.0869140625	1587.943969726562	-393.1907958984375	-472.5487060546875	1591.397216796875	-571.2796630859375	-443.6111450195312	1591.7392578125	-452.0820007324219	-618.594970703125	1587.25390625	-545.5091552734375	-696.4060668945312	973.6448974609375	-623.4923706054688	-512.2605590820312	943.6761474609375	-316.9493713378906	-432.3588562011719	959.8678588867188	-435.7387084960938	-579.0285034179688	965.3836059570312	-653.8107299804688	-670.28564453125	480.2046813964844	-670.6513061523438	-676.3451538085938	623.7713012695312	-665.2891845703125	-769.873046875	38.90756225585938	-604.5442504882812	-728.2071533203125	250.3325653076172	-648.6887817382812	-559.4930419921875	51.52719879150391	-673.1491088867188	-604.4889526367188	47.37945556640625	-601.695068359375	-671.5687866210938	38.91106414794922	-685.1349487304688	-769.3729858398438	36.76884078979492	-536.6680908203125	-357.5369567871094	497.9840393066406	-490.1318664550781	-401.6007690429688	740.6708984375	-405.5059509277344	-558.6160888671875	121.8664169311523	-445.7460327148438	-390.1166381835938	373.8994445800781	-499.7015991210938	-459.3100280761719	47.52432632446289	-583.8921508789062	-529.7908935546875	78.02330780029297	-573.3110961914062	-493.7770385742188	76.30226898193359	-478.962158203125	-645.5458374023438	142.4440612792969	-457.5032348632812	-544.1824340820312	758.0833129882812	-899.3306884765625	-554.9259033203125	842.9038696289062	-884.056396484375	-468.6302795410156	729.6409301757812	-245.5685272216797	nan	nan	nan	
